<mxfile host="app.diagrams.net" modified="2022-05-27T18:48:27.337Z" agent="5.0 (Windows)" etag="rbwXSdQ6PNDzgywWLKW8" version="18.1.3" type="github" pages="2">
  <diagram id="Bw87fxxCsG_0QgVkXlxO" name="Page-1">
    <mxGraphModel dx="985" dy="528" grid="1" gridSize="10" guides="1" tooltips="1" connect="1" arrows="1" fold="1" page="1" pageScale="1" pageWidth="850" pageHeight="1100" math="0" shadow="0">
      <root>
        <mxCell id="0" />
        <mxCell id="1" parent="0" />
        <mxCell id="z0XEiifldknQYLpQF6l0-3" style="edgeStyle=orthogonalEdgeStyle;rounded=0;orthogonalLoop=1;jettySize=auto;html=1;" edge="1" parent="1" source="z0XEiifldknQYLpQF6l0-1" target="z0XEiifldknQYLpQF6l0-2">
          <mxGeometry relative="1" as="geometry" />
        </mxCell>
        <mxCell id="z0XEiifldknQYLpQF6l0-4" style="edgeStyle=orthogonalEdgeStyle;rounded=0;orthogonalLoop=1;jettySize=auto;html=1;" edge="1" parent="1" source="z0XEiifldknQYLpQF6l0-1">
          <mxGeometry relative="1" as="geometry">
            <mxPoint x="270" y="330" as="targetPoint" />
          </mxGeometry>
        </mxCell>
        <mxCell id="z0XEiifldknQYLpQF6l0-10" style="edgeStyle=orthogonalEdgeStyle;rounded=0;orthogonalLoop=1;jettySize=auto;html=1;" edge="1" parent="1" source="z0XEiifldknQYLpQF6l0-1">
          <mxGeometry relative="1" as="geometry">
            <mxPoint x="140" y="300" as="targetPoint" />
          </mxGeometry>
        </mxCell>
        <mxCell id="z0XEiifldknQYLpQF6l0-1" value="Doc Types" style="ellipse;whiteSpace=wrap;html=1;aspect=fixed;" vertex="1" parent="1">
          <mxGeometry x="110" y="120" width="80" height="80" as="geometry" />
        </mxCell>
        <mxCell id="z0XEiifldknQYLpQF6l0-2" value="Meta Data" style="ellipse;whiteSpace=wrap;html=1;aspect=fixed;" vertex="1" parent="1">
          <mxGeometry x="370" y="130" width="80" height="80" as="geometry" />
        </mxCell>
        <mxCell id="z0XEiifldknQYLpQF6l0-5" value="ACL" style="ellipse;whiteSpace=wrap;html=1;aspect=fixed;" vertex="1" parent="1">
          <mxGeometry x="230" y="330" width="80" height="80" as="geometry" />
        </mxCell>
        <mxCell id="J49JIjd6sclcKSiuNw3X-1" style="edgeStyle=orthogonalEdgeStyle;rounded=0;orthogonalLoop=1;jettySize=auto;html=1;entryX=1;entryY=0.5;entryDx=0;entryDy=0;" edge="1" parent="1" source="z0XEiifldknQYLpQF6l0-6" target="z0XEiifldknQYLpQF6l0-7">
          <mxGeometry relative="1" as="geometry">
            <Array as="points">
              <mxPoint x="510" y="500" />
            </Array>
          </mxGeometry>
        </mxCell>
        <mxCell id="z0XEiifldknQYLpQF6l0-6" value="Users" style="ellipse;whiteSpace=wrap;html=1;aspect=fixed;" vertex="1" parent="1">
          <mxGeometry x="470" y="610" width="80" height="80" as="geometry" />
        </mxCell>
        <mxCell id="z0XEiifldknQYLpQF6l0-9" style="edgeStyle=orthogonalEdgeStyle;rounded=0;orthogonalLoop=1;jettySize=auto;html=1;" edge="1" parent="1" source="z0XEiifldknQYLpQF6l0-7" target="z0XEiifldknQYLpQF6l0-5">
          <mxGeometry relative="1" as="geometry" />
        </mxCell>
        <mxCell id="z0XEiifldknQYLpQF6l0-7" value="&lt;div&gt;Roles&lt;/div&gt;" style="ellipse;whiteSpace=wrap;html=1;aspect=fixed;" vertex="1" parent="1">
          <mxGeometry x="330" y="460" width="80" height="80" as="geometry" />
        </mxCell>
        <mxCell id="J49JIjd6sclcKSiuNw3X-2" style="edgeStyle=orthogonalEdgeStyle;rounded=0;orthogonalLoop=1;jettySize=auto;html=1;" edge="1" parent="1" source="z0XEiifldknQYLpQF6l0-8" target="z0XEiifldknQYLpQF6l0-7">
          <mxGeometry relative="1" as="geometry" />
        </mxCell>
        <mxCell id="J49JIjd6sclcKSiuNw3X-6" style="edgeStyle=orthogonalEdgeStyle;rounded=0;orthogonalLoop=1;jettySize=auto;html=1;" edge="1" parent="1" source="z0XEiifldknQYLpQF6l0-8" target="z0XEiifldknQYLpQF6l0-6">
          <mxGeometry relative="1" as="geometry" />
        </mxCell>
        <mxCell id="z0XEiifldknQYLpQF6l0-8" value="&lt;div&gt;Groups&lt;/div&gt;" style="ellipse;whiteSpace=wrap;html=1;aspect=fixed;" vertex="1" parent="1">
          <mxGeometry x="220" y="600" width="80" height="80" as="geometry" />
        </mxCell>
        <mxCell id="z0XEiifldknQYLpQF6l0-11" value="Cabinet" style="ellipse;whiteSpace=wrap;html=1;aspect=fixed;" vertex="1" parent="1">
          <mxGeometry x="100" y="300" width="80" height="80" as="geometry" />
        </mxCell>
        <mxCell id="J49JIjd6sclcKSiuNw3X-4" style="edgeStyle=orthogonalEdgeStyle;rounded=0;orthogonalLoop=1;jettySize=auto;html=1;" edge="1" parent="1" source="J49JIjd6sclcKSiuNw3X-3" target="z0XEiifldknQYLpQF6l0-11">
          <mxGeometry relative="1" as="geometry" />
        </mxCell>
        <mxCell id="J49JIjd6sclcKSiuNw3X-5" style="edgeStyle=orthogonalEdgeStyle;rounded=0;orthogonalLoop=1;jettySize=auto;html=1;entryX=0;entryY=0.5;entryDx=0;entryDy=0;" edge="1" parent="1" source="J49JIjd6sclcKSiuNw3X-3" target="z0XEiifldknQYLpQF6l0-8">
          <mxGeometry relative="1" as="geometry" />
        </mxCell>
        <mxCell id="J49JIjd6sclcKSiuNw3X-3" value="Workflows" style="whiteSpace=wrap;html=1;aspect=fixed;" vertex="1" parent="1">
          <mxGeometry x="30" y="500" width="80" height="80" as="geometry" />
        </mxCell>
      </root>
    </mxGraphModel>
  </diagram>
  <diagram id="kCsiiDo__v9tucZeU_c4" name="Page-2">
    <mxGraphModel dx="1182" dy="634" grid="1" gridSize="10" guides="1" tooltips="1" connect="1" arrows="1" fold="1" page="1" pageScale="1" pageWidth="850" pageHeight="1100" math="0" shadow="0">
      <root>
        <mxCell id="0" />
        <mxCell id="1" parent="0" />
      </root>
    </mxGraphModel>
  </diagram>
</mxfile>
